<?xml version="1.0" encoding="UTF-8"?><svg id="Layer_1" xmlns="http://www.w3.org/2000/svg" viewBox="0 0 609.01 195.15"><path d="M451.97,180.81c-8.41-3.92-16.87-5.52-25.78-3.44l-16.72,5.26c-9.42,2.96-21.53,8.36-31,7.36-3.44-.36-6.06-3.34-5.52-6.79.43-2.75,1.36-5.49,2.53-8.01l6.68-14.39c1.94-4.18,3.19-8.47,3.96-12.99,1.04-6.14-.17-12.11-3.67-17.24l-4.83-7.09c-6.22-9.11-5.21-17.88.73-26.96,2.55-3.91,5.08-7.74,6.46-12.22,1.9-6.16.94-12.67-2.91-17.76l-7.5-9.89c-3-3.96-4.4-9.33-2.26-13.99,5.31-11.59,25.33-12.02,37.12-.98,7,6.56,10.34,16.03,9.05,25.76-.66,5-2.57,9.5-4.66,14.07l-4.71,10.34c-1.75,3.84-1.37,8.19.1,12.16l4.84,9.76c6.22,12.54,3.85,20.68-2.67,32.55-1.65,3-2.91,6.14-3.05,9.52-.12,2.89,2.13,4.94,5.02,4.88,8.93-.19,19.08-5.48,30.62-7.38,10.47-1.72,20.77-1.44,31.28-.47,5.37.5,10.56,1.04,15.6,2.67,7.23,2.34,11.83,8.83,10.63,16.43-1.4,8.92-8.13,15.91-17.07,17.59-5.9,1.11-11.82.24-17.45-1.85l-14.81-6.9Z"></path><path d="M600.98,165.8c-11.1,17.99-33.23,24.77-51.8,16.64l-10.26-4.5c-2.23-.98-4.97.51-6.66,2.1-3.57,3.34-7.53,5.92-12.52,6.25-3.51.24-6.81-.84-9-3.22-4.82-5.23-3.1-12.79-.22-19.77,5.34-12.95,8.24-26.13,8.79-40.26.7-17.64-1.54-34.76-6.57-51.6l-4.37-16.68c-1.04-3.97-1.07-8.2-.41-12.16,1.3-7.84,7.26-13.18,14.96-14.32,9.04-1.33,17.3,3.33,20.64,11.93,3.72,9.57,1.18,19.8-.89,29.75l-3.79,18.21c-.9,4.32-1.32,10.97,1.33,12.37.83.44,2.52.3,3.48-.16l10.21-4.97c19.35-7.62,39.27-1.34,48.98,16.92,8.88,16.71,8.06,37.35-1.88,53.46Z"></path><path d="M434.21,120.62c-1.59-13.49,9.15-23.41,21.36-26.23l11.2-2.59c6.48-1.5,13.29-5.97,12.84-12.6-.15-2.2-1.39-4.06-3.02-4.97-1.96-1.1-4.35-1.29-6.25.13l-5.52,4.13c-4.16,3.11-8.89,5.28-14.1,4.87-7.06-.56-12.74-6.1-12.41-13.31.24-5.1,3.46-9.24,7.8-11.95,12.95-8.09,32.92-7.48,42.82,4.42,3.94,4.74,6.53,9.97,7.91,16.04,2.59,11.36,4.13,22.67,4.2,34.37.05,8.51-1.93,19.34-7.89,25.09-3.16,3.04-7.86,3.49-11.44.98-3.09-2.17-6.68-2.59-10.42-1.69l-11.98,2.88c-12.55,1.72-23.59-6.78-25.1-19.55Z"></path><path d="M107.9,152.57c6.58,3.43,12.71,9.27,12.96,16.92.23,6.99-3.45,13.47-9.55,17.09-9.04,5.36-20.09,4.4-29.01-1.06-5.52-3.38-9.77-7.86-13.27-13.33-9.26-14.51-11.36-30.6-14.49-47.32-1.53-8.15-5.84-22.05-13.21-24.26-3.96-1.18-7.62.95-8.83,4.88-1.4,4.54-1.2,9.23-.76,14.05.67,7.29,1.46,14.38,3.54,21.41l4.91,16.59c2.11,7.12,2.67,14.41.45,21.51-3.4,10.9-14.15,17.83-25.3,15.72-9.07-1.72-15.02-9.32-14.68-18.46.43-11.67,6.68-27.36,9.42-41.06,5.31-26.53,4.07-57.36-4-83.3C2.06,39.08-3.06,25.06,2.32,12.61,4.8,6.88,9.26,2.71,14.32,1.09,20.89-1,27.42-.1,32.55,3.94c4.84,3.81,7.5,9.48,8.24,15.57.79,6.5-.3,12.79-1.81,19.13l-4.85,20.37c-1.32,5.52-2.07,10.85-2.11,16.54-.01,1.39.92,3.26,1.74,3.97,3.49,3.01,10.19-.63,14.11-5.93s6.71-11.55,8.99-18l6.7-18.96c2.02-5.7,4.48-11.04,7.61-16.2,6.63-10.94,17.36-19.41,30.38-17.81,5.43.67,10.15,3.55,12.73,7.52,6.58,10.12.55,22.17-8.23,30.56-5.14,4.91-10.64,9.03-16.3,13.44-9.96,7.76-21.58,17.29-27.58,28.29-1.96,3.59-2.31,7.88-.73,11.77,4.09,10.12,8.32,19.89,13.41,29.52,5.62,10.64,13.7,18.76,24.31,24.29l8.74,4.55Z"></path><path d="M121.2,135.31l-4.84,2.71c-6.82,3.81-14.59,4.53-21.87,1.37-13.63-5.92-18.05-22.66-9.94-35.05,6.65-10.17,15.52-16.11,20.49-27.1,3.55-7.84,3.72-16.88,8-22.17,1.81-2.24,4.41-3.62,7.01-3.59,7.33.08,10.45,8.57,11.58,16.06,2.05,13.57,5.62,26.37,10.72,39.1,2.12,5.29,3.94,10.34,5.27,15.82,1.62,6.69.67,15.04-5.09,17.76s-9.55.29-13.88-3.79c-1.97-1.86-4.81-2.59-7.44-1.11ZM114.78,123.27c7.87-6.13,7.63-21.61,5.04-31.12-.6-2.21-2.28-4.41-4.63-4.47-2.14-.05-4.14,1.62-5.59,3.32-6.66,7.83-14.51,22.96-8.09,31.29,3.24,4.22,8.97,4.32,13.27.97Z"></path><path d="M242.43,103.37c-1.05-6.36,3.79-12.7,1.19-19.63-1.1-2.93-4.08-5.09-7.24-4.25-7.38,1.94-8.22,16.94-5.84,25.12l3.91,13.47c2.73,9.41,1.78,20.41-7.37,24.41-5.13,2.24-10.82,1.66-14.97-2.08-3.62-3.26-5-8.21-4.76-13.12.2-4.1,1.34-7.92,2.29-11.88l3.18-13.33c1.53-6.41,1.07-12.74-.44-19.11l-2.72-11.53c-1.65-6.97-2.53-15.47,3.61-18.73,2.82-1.5,5.92-1.08,8.66.56,4.35,2.59,4.89,7.4,8.3,7.91,3.2.48,4.52-4.04,8.41-7.45,4.29-3.76,10.5-3.7,14.73.14l3.58,4.17c1.64,1.91,4.17,2.58,6.3.97l4.42-3.34c5.41-4.08,12.99-4.84,18.7-.92,5.14,3.53,7.66,9.59,7.82,15.79.31,11.81-5.88,24.45-5.15,37.55l1.94,15.27c1.04,8.21-1.29,16.31-9.15,18.83-4.45,1.42-8.84.57-12.2-2.53-7.95-7.3-3.41-18.52.15-27.77s7.37-21.98,2.33-30.9c-1.37-2.42-3.73-3.82-6.32-3.64s-4.6,2.21-5.35,5.09c-1.79,6.86,2.83,14.39.69,22.08-1.3,4.68-5.04,7.47-9.58,7.34s-8.27-3.45-9.1-8.5Z"></path><path d="M354.31,142.44c-7.97-.92-9.49-10.76-16.91-6.87l-8.67,4.55c-8.45,4.43-18.78,3.08-25.96-3.35-8.01-7.16-9.55-18.65-4.52-28.09,6.36-11.94,16.94-17.86,23.14-29,4.85-8.7,4.63-17.77,9.26-23.65,1.95-2.48,4.91-3.76,7.82-3.66,5.7.2,9.51,6.14,10.62,11.99l3.21,16.97c1.82,9.63,5.3,18.52,8.29,27.81l5.03,15.59c.9,2.8.9,5.94.46,8.76-.91,5.91-5.82,9.62-11.77,8.94ZM336.83,114.76c2.02-8.05,2.68-24.06-3.4-26.38-5.08-1.94-11.14,7.85-14.06,13.56-1.95,3.82-3.58,7.75-4,12.03-.49,4.85,1.51,9.52,5.92,11.57,5.86,2.72,13.54-2.76,15.55-10.78Z"></path><path d="M181.71,70.47c-7.46-.09-11.66,11.22-10.04,21.11,1.28,7.81,4.09,14.85,7.2,22.05,3.27,7.58,5.88,16.6,1.13,23.48-5.33,7.71-16.84,8.85-23.51,2.16-4.05-4.05-5.81-10.05-4.8-15.58l2.46-13.39c4.27-23.3-4.79-30.54-8.87-44.53-.96-3.3-.56-7.26,1.75-9.74,4.63-4.96,11.98-4.13,16.52.63,1.44,1.51,3,3.34,4.96,4.12,5.03,2.02,9.67-5.33,19.6-7.64,7.83-1.82,15.27,1.89,18.15,9.31,1.84,4.75,1.65,10.05-1.52,14.11-2.84,3.65-7.5,4.72-11.63,2.67-5.56-2.76-7.02-8.72-11.41-8.77Z"></path></svg>