<?xml version="1.0" encoding="UTF-8"?><svg id="Layer_1" xmlns="http://www.w3.org/2000/svg" viewBox="0 0 263.6 425.75"><defs></defs><path class="cls-1" d="M235.03,332.9c7.9,4.16,14.31,9.16,19.95,15.57,15.73,17.83,8.88,46.2-12.17,58.6-15.31,9.02-33.63,9.99-50.34,3.83s-30.17-17.88-40.18-32.83c-21.72-32.45-26.1-68.22-33.23-105.79-2.7-14.22-7.13-27.26-14.16-39.74-3.31-5.89-8.2-11.08-14.63-13.14-8.97-2.88-17.33,2.42-19.87,11.36-4.98,17.59.87,58.72,6.53,77.82l10.96,36.99c4.21,14.2,5.04,28.48,1.24,42.81-6.04,22.79-26.78,38.84-50.44,37.26-16.91-1.12-31.35-11.95-35.67-28.22-2.28-8.6-1.89-17.62-.16-26.39,3.11-15.83,7.34-30.64,11.83-46.21,7.38-25.58,12.08-50.77,13.46-77.37,2.78-53.44-2.27-98.16-19.37-148.75-3.46-10.25-5.72-20.2-7.52-30.71-2.38-13.9-1.63-27.74,3.82-40.43S19.72,6.27,30.54,2.62c13.92-4.7,27.84-3.14,39.14,5.1s17.22,20.58,18.95,34.12c1.92,14.96-.71,29.24-4.17,43.79l-10.21,42.9c-3.2,13.44-7.84,37.92-1.28,44.53,6.16,6.21,19.47,1.3,27.42-7.58,33.39-37.34,32.93-115.1,80.02-148.71,13.62-9.72,30.01-13.65,46.13-10.04,19.18,4.3,31.23,21.89,28.28,41.24-3.45,22.64-20.7,39.72-38.39,53.67l-30.21,23.84c-18.3,14.44-41.84,35.84-51.65,56.2-3.62,7.51-3.86,16.15-.69,23.99,8.1,20.03,16.5,39.34,26.16,58.67,12.35,24.7,28.55,44.09,52.99,56.96l21.99,11.59Z"></path></svg>